<svg id="Слой_1" data-name="Слой 1" xmlns="http://www.w3.org/2000/svg" viewBox="0 0 100 100"><defs><style>.cls-1{fill:#618bbe}</style></defs><path class="cls-1" d="M90.51 30.26H95l-4.99-8.59-4.98 8.59h4.48v55.23h-4.48l4.98 8.59L95 85.49h-4.49V30.26zM4.5 5h1v43.36h-1zm66.33 89.08H95v1H70.83zm-7.64-73.41H95v1H63.19z"/><path class="cls-1" d="M83.53 5h1v45.5h-1z"/><path class="cls-1" d="M67.42 95.5h-3v-2h3zm-6 0h-3v-2h3zm-6 0h-3v-2h3zm-6 0h-3l-.05-1v-1h3zm21.42-.37l-.93-1.77a1.38 1.38 0 0 0 .71-1.22.71.71 0 0 0 0-.14v-.2l2-.18v.52a3.35 3.35 0 0 1-1.78 2.99zM43.24 93a3.85 3.85 0 0 1-.1-.83v-2.44h2v2.41a1.41 1.41 0 0 0 0 .35zm27.09-4.16l-.26-3 2-.17.26 3zm-25.19-2.11h-2v-3h2zm24.66-3.9l-.26-3 2-.17.27 3zm-24.66-2.1h-2v-3h2zm24.14-3.88l-.27-3 2-.18.26 3zm-24.14-2.12h-2v-3h2zm23.61-3.85l-.26-3 2-.18.26 3zm-23.61-2.15h-2v-3h2zm23.08-3.83l-.26-3 2-.17.26 3zm-23.08-2.17h-2v-3h2zm22.55-3.81l-.15-1.71v-.32a3.36 3.36 0 0 1 .31-1.44l1.81.84a1.46 1.46 0 0 0-.12.6.76.76 0 0 0 0 .15l.15 1.71zm5.77-1.81a3.16 3.16 0 0 1-1.7-1.1 1.22 1.22 0 0 0-.73-.45l.37-2a3.24 3.24 0 0 1 1.91 1.16 1.29 1.29 0 0 0 .65.43zm-28.32-.38h-2v-3h2zM77 56l-1.11-1.67 2.5-1.66 1.11 1.66zm5-3.34L80.87 51l1.28-.85a1.37 1.37 0 0 0 .51-.65l1.87.69a3.24 3.24 0 0 1-1.27 1.62zm-36.84-2h-2v-3h2zm37-3.07l-1.67-2.48 1.65-1.12 1.68 2.49zm-37-2.93h-2v-3h2zm33.63-2l-1.7-2.46 1.66-1.12 1.68 2.49zm-33.63-4h-2v-3h2zm30.27-1l-1.68-2.48 1.66-1.12 1.68 2.49zm-30.19-4.57l-1.88-.7a3.47 3.47 0 0 1 .55-.95l1.41-1.72L46.86 31l-1.4 1.72a1.26 1.26 0 0 0-.22.37zm26.82-.35l-1.68-2.49L72 29.13l1.67 2.49zm-23.3-4.08l-1.55-1.27 1.9-2.32 1.55 1.27zm19.94-.89L67 25.28l1.66-1.12 1.68 2.49zM52.56 24L51 22.75l.58-.72a3.24 3.24 0 0 1 2.51-1.2l.09 2h-.08a1.23 1.23 0 0 0-1 .47zm12.91-.92a1.22 1.22 0 0 0-.75-.26h-1.53v-2h1.53a3.26 3.26 0 0 1 2 .69zm-5.28-.26h-3v-2h3z"/><path class="cls-1" d="M41.87 94.5H18.94a2.32 2.32 0 0 1-2.26-2.58l3.07-34.79a2.27 2.27 0 0 0-4-1.75 2.21 2.21 0 0 1-3 .46L5.58 51A2.43 2.43 0 0 1 5 47.67l16.71-24.83a2.25 2.25 0 0 1 1.86-1h10.62a2.23 2.23 0 0 1 1.73.84l7.68 9.4a2.42 2.42 0 0 1 .54 1.53v58.53a2.31 2.31 0 0 1-2.27 2.36zM83.75 9.99L75.11 5v4.49H14.17V5L5.54 9.99l8.63 4.98v-4.48h60.94v4.48l8.64-4.98z"/></svg>