<svg xmlns="http://www.w3.org/2000/svg" viewBox="0 0 100 100"><path d="M70.5 56.5A2.5 2.5 0 0 1 68 59H51a2.5 2.5 0 0 1-2.41-1.84l-.13-.46v9.72a4.42 4.42 0 0 1-.39 1.81l5.69 23.69a2.49 2.49 0 0 1-1.84 3 2.44 2.44 0 0 1-.59.07 2.5 2.5 0 0 1-2.43-1.92l-5.35-22.24h-1.26l-5.87 22.11A2.51 2.51 0 0 1 34 94.8a2.35 2.35 0 0 1-.64-.09 2.5 2.5 0 0 1-1.78-3.06l6-22.7a4.33 4.33 0 0 1-.81-2.53V38.75a4.42 4.42 0 0 1 4.41-4.42h2.83a4.34 4.34 0 0 1 2.72 1A2.5 2.5 0 0 1 48.29 37l4.62 17H68a2.5 2.5 0 0 1 2.5 2.5zm-27-24.66a6.72 6.72 0 1 0-6.72-6.72 6.72 6.72 0 0 0 6.72 6.72zM77 43.59a1 1 0 0 0-1-1H62a1 1 0 0 0 0 2h14a1 1 0 0 0 1-1zm0-13.37a1 1 0 0 0-1-1H62a1 1 0 0 0 0 2h14a1 1 0 0 0 1-1zm0 6.69a1 1 0 0 0-1-1H62a1 1 0 0 0 0 2h14a1 1 0 0 0 1-1zm0 3.34a1 1 0 0 0-1-1H62a1 1 0 0 0 0 2h14a1 1 0 0 0 1-1zm0-6.81a1 1 0 0 0-1-1H62a1 1 0 0 0 0 2h14a1 1 0 0 0 1-1zm11.71 52.73A12.41 12.41 0 0 0 100 98.51V73.83a12.4 12.4 0 0 0-11.29 12.34zM100 4.88v67A14.41 14.41 0 0 0 87.06 83h-5.52c-4.76 0-8.62-3.89-8.62-7.33V50.65H53.83V22.58h19.09v-7.64c0-6.17 3.86-10.06 8.62-10.06zm-2.58 29.43l-17.13-22 .16 11.26H54.83v26.08h25.63l-.16 7.83zm-86.34 7.88h14m1 0a1 1 0 0 0-1-1h-14a1 1 0 1 0 0 2h14a1 1 0 0 0 1-1zm-15-13h14m1 0a1 1 0 0 0-1-1h-14a1 1 0 1 0 0 2h14a1 1 0 0 0 1-1.02zm-15 6.51h14m1 0a1 1 0 0 0-1-1h-14a1 1 0 1 0 0 2h14a1 1 0 0 0 1-1.02zm-15 3.25h14m1 0a1 1 0 0 0-1-1h-14a1 1 0 1 0 0 2h14a1 1 0 0 0 1-1.02zm-15-6.63h14m1 0a1 1 0 0 0-1-1h-14a1 1 0 1 0 0 2h14a1 1 0 0 0 1-1.02zm-15-13.89h14m1 0a1 1 0 0 0-1-1h-14a1 1 0 0 0 0 2h14a1 1 0 0 0 1-1.02zm-15-13h14m1 0a1 1 0 0 0-1-1h-14a1 1 0 0 0 0 2h14a1 1 0 0 0 1-1.04zm-15 6.51h14m1 0a1 1 0 0 0-1-1h-14a1 1 0 0 0 0 2h14a1 1 0 0 0 1-1.04zm-15 3.25h14m1 0a1 1 0 0 0-1-1h-14a1 1 0 0 0 0 2h14a1 1 0 0 0 1-1.04zm-15-6.63h14m1 0a1 1 0 0 0-1-1h-14a1 1 0 0 0 0 2h14a1 1 0 0 0 1-1.04zM11.08 66h14m1 0a1 1 0 0 0-1-1h-14a1 1 0 1 0 0 2h14a1 1 0 0 0 1-1zm-15-13h14m1 0a1 1 0 0 0-1-1h-14a1 1 0 1 0 0 2h14a1 1 0 0 0 1-1zm-15 6.51h14m1 0a1 1 0 0 0-1-1h-14a1 1 0 0 0 0 2h14a1 1 0 0 0 1-1.05zm-15 3.25h14m1 0a1 1 0 0 0-1-1h-14a1 1 0 0 0 0 2h14a1 1 0 0 0 1-1.05zm-15-6.63h14m1 0a1 1 0 0 0-1-1h-14a1 1 0 1 0 0 2h14a1 1 0 0 0 1-1.05zm0 33.66a1 1 0 0 0-1-1h-14a1 1 0 1 0 0 2h14a1 1 0 0 0 1-1.05zm0-13a1 1 0 0 0-1-1h-14a1 1 0 1 0 0 2h14a1 1 0 0 0 1-1.06zm0 6.51a1 1 0 0 0-1-1h-14a1 1 0 1 0 0 2h14a1 1 0 0 0 1-1.06zm0 3.25a1 1 0 0 0-1-1h-14a1 1 0 1 0 0 2h14a1 1 0 0 0 1-1.06zm0-6.63a1 1 0 0 0-1-1h-14a1 1 0 1 0 0 2h14a1 1 0 0 0 1-1.06zm1-54.07v-4H7V2.88H3v94.25h24.08v-4H7V73.35h20.08v-4H7V49.57h20.08v-4H7V25.79z" fill="#618bbe" data-name="4"/></svg>