<svg xmlns="http://www.w3.org/2000/svg" viewBox="0 0 100 100"><path d="M19.45 96a2.9 2.9 0 0 1-2.74-3.26l3.73-44.06c.24-2.91-3.1-4.43-4.84-2.21a2.61 2.61 0 0 1-3.59.58L3.27 41a3.14 3.14 0 0 1-.77-4.23l20.31-31.5A2.67 2.67 0 0 1 25.06 4h12.88a2.7 2.7 0 0 1 2.1 1l9.31 12h1.3L60 5.05a2.7 2.7 0 0 1 2.1-1h12.84a2.67 2.67 0 0 1 2.25 1.27l20.31 31.4a3.14 3.14 0 0 1-.77 4.28L88 47.05a2.61 2.61 0 0 1-3.59-.58c-1.74-2.22-5.08-.7-4.84 2.21l3.73 44.06A2.9 2.9 0 0 1 80.55 96M49.44 30.47l-4.33 13.64L30.8 44a.68.68 0 0 0-.4 1.23L42 53.59l-4.49 13.58a.68.68 0 0 0 1.06.76l11.52-8.49 11.52 8.49a.68.68 0 0 0 1-.76l-4.46-13.58 11.63-8.34a.68.68 0 0 0-.4-1.23l-14.31.09-4.33-13.64a.68.68 0 0 0-1.3 0zM67.51 71.7l8.78-27a3.38 3.38 0 0 0-1.23-3.79l-23-16.69a3.36 3.36 0 0 0-4 0l-23 16.69a3.38 3.38 0 0 0-1.23 3.79l8.77 27a3.4 3.4 0 0 0 3.23 2.35h28.4a3.38 3.38 0 0 0 3.28-2.35zM49.27 25.83a1.4 1.4 0 0 1 1.63 0l23 16.69a1.38 1.38 0 0 1 .5 1.55l-8.77 27a1.4 1.4 0 0 1-1.32 1H35.89a1.4 1.4 0 0 1-1.32-1l-8.77-27a1.38 1.38 0 0 1 .5-1.55l23-16.69z" fill="#618bbe" data-name="3"/></svg>