<svg version="1" xmlns="http://www.w3.org/2000/svg" viewBox="0 0 180 72"><style>.st0{fill:#618bbe}</style><path class="st0" d="M50.5 0h6.9v1h-6.9zm10.2 0h6.9v1h-6.9zM30.1 0H37v1h-6.9zm10.2 0h6.9v1h-6.9zM9.7 0h6.9v1H9.7zm10.2 0h6.9v1h-6.9zM0 42.5h1V50H0zm0-10.8h1v7.5H0zm0-21.5h1v7.5H0zM0 21h1v7.5H0zM1 7c.3-2.9 2.5-5.3 5.4-5.9v-1C3 .7.3 3.5 0 7h1zm110.8-7h6.9v1h-6.9zm30.6 0h6.9v1h-6.9zM70.9 0h6.9v1h-6.9zm81.7 0h6.9v1h-6.9zm10.2 0h6.9v1h-6.9zM173 1c3.2.3 5.7 2.8 6 6h1c-.3-3.7-3.3-6.7-7-7v1zm-40.8-1h6.9v1h-6.9zM81.1 0H88v1h-6.9zm10.2 0h6.9v1h-6.9zm10.2 0h6.9v1h-6.9zM122 0h6.9v1H122zM0 53.2h1v7.5H0zm179-21.5h1v7.5h-1zM142.4 71h6.9v1h-6.9zm10.2 0h6.9v1h-6.9zm10.2 0h6.9v1h-6.9zm-51 0h6.9v1h-6.9zm10.2 0h6.9v1H122zm10.2 0h6.9v1h-6.9zM179 21h1v7.5h-1zm0-10.8h1v7.5h-1zM6.4 70.9C3.3 70.3 1 67.6 1 64.4V64H0v.4c0 3.8 2.8 6.9 6.4 7.5v-1zM179 64.4c0 3.4-2.6 6.3-6 6.6v1c3.9-.3 7-3.6 7-7.6V64h-1v.4zm0-21.9h1V50h-1zm0 10.7h1v7.5h-1zM40.3 71h6.9v1h-6.9zm10.2 0h6.9v1h-6.9zm-20.4 0H37v1h-6.9zm-10.2 0h6.9v1h-6.9zM9.7 71h6.9v1H9.7zm71.4 0H88v1h-6.9zm20.4 0h6.9v1h-6.9zm-40.8 0h6.9v1h-6.9zm30.6 0h6.9v1h-6.9zm-20.4 0h6.9v1h-6.9z" id="Слой_3"/><path class="st0" d="M35.9 35.2h-5.1V17.9h-7.5v17.3h-5.1V14.1H36v21.1zm26.3 0h-5.5l-1.4-4h-8.1l-1.4 4h-5.5l8.5-21.1h5l8.4 21.1zm-8.1-7.3l-2.8-8.2-.1.1-2.8 8.2h5.7zm28.8-7.3c0 3.4-1.5 5.6-4.5 6.7-.9.3-2 .5-3.3.6h-3.4v7.3h-5.2V14.1h7.7c2.7 0 4.8.6 6.4 1.7 1.5 1.2 2.3 2.8 2.3 4.8zm-5.1.4c0-2.1-1.3-3.1-4-3.1h-2.1v6.3H74c1.2 0 2.1-.3 2.8-.9.7-.6 1-1.4 1-2.3zm22.5-3.1h-4.7v17.3h-5.2V17.9h-4.7v-3.8h14.6v3.8zm22.9 17.3h-5.1v-9h-8v9H105V14.1h5.1v8.4h8v-8.4h5.1v21.1zm19.1 0h-12.5V14.1h12.5v3.8h-7.4v4.7h7.3v3.7h-7.3v5.1h7.4v3.8zm22.1-14.6c0 3.4-1.5 5.6-4.5 6.7-.9.3-2 .5-3.3.6h-3.4v7.3H148V14.1h7.7c2.7 0 4.8.6 6.4 1.7 1.5 1.2 2.3 2.8 2.3 4.8zm-5.1.4c0-2.1-1.3-3.1-4-3.1h-2.1v6.3h2.3c1.2 0 2.1-.3 2.8-.9.7-.6 1-1.4 1-2.3zm-132 34.7h-9.2v-7.2h1.8v6h2v-6h1.6v6h2v-6h1.8v7.2zm7.7-2.1c0 .7-.3 1.2-.8 1.6-.5.4-1.2.6-2.2.6h-2.5v-7.2h2.6c.8 0 1.4.2 1.9.5s.7.8.7 1.4c0 .7-.3 1.1-1 1.5.9.1 1.3.7 1.3 1.6zm-2.1-3.1c0-.5-.3-.7-.9-.7h-.7v1.6h.6c.3 0 .6-.1.8-.3.1-.1.2-.3.2-.6zm.3 3c0-.6-.4-.9-1.2-.9h-.8v1.9h.8c.8-.1 1.2-.4 1.2-1zm8 2.2h-4.3v-7.2h4.3v1.3h-2.5v1.6h2.5v1.3h-2.5v1.8h2.5v1.2zm8.5 0H48v-4.6l-3.3 4.6h-1.5v-7.2h1.7V53l3.3-4.5h1.5v7.2zm-1.4-9c0 .4-.2.8-.5 1.1-.3.3-.8.4-1.4.4s-1-.1-1.4-.4c-.3-.3-.5-.6-.5-1.1h1.2c0 .5.2.7.7.7.5 0 .7-.2.7-.7h1.2zm9.9 9h-1.8v-3.1h-2.8v3.1h-1.8v-7.2h1.8v2.9h2.8v-2.9h1.8v7.2zm10.1-3.6c0 1-.3 1.9-1 2.6-.8.8-1.8 1.2-3.1 1.2s-2.3-.4-3.1-1.2c-.7-.7-1-1.6-1-2.6s.3-1.9 1-2.6c.8-.8 1.8-1.2 3.1-1.2s2.3.4 3.1 1.2c.6.7 1 1.6 1 2.6zm-1.8 0c0-.6-.2-1.2-.5-1.6-.4-.5-1-.8-1.8-.8s-1.4.3-1.8.8c-.3.4-.5 1-.5 1.6 0 .6.2 1.2.5 1.6.4.5 1 .8 1.8.8s1.4-.3 1.8-.8c.3-.4.5-1 .5-1.6zm7.9 3.6h-4.3v-7.2h4.3v1.3h-2.5v1.6h2.5v1.3h-2.5v1.8h2.5v1.2zm13.5 0h-1.8v-5.9h-2.6v5.9h-1.8v-7.2h6.1v7.2zm7.9-5c0 1.2-.5 1.9-1.5 2.3-.3.1-.7.2-1.1.2H92v2.5h-1.8v-7.2h2.6c.9 0 1.7.2 2.2.6.5.4.8.9.8 1.6zm-1.8.1c0-.7-.5-1.1-1.4-1.1h-.7v2.2h.8c.4 0 .7-.1 1-.3.2-.2.3-.4.3-.8zm7.7 4.9h-4.3v-7.2h4.3v1.3h-2.5v1.6h2.5v1.3h-2.5v1.8h2.5v1.2zm8.8 1.5h-1.7v-1.4h-4v1.4H103v-2.7h.6l2.1-6h2.1l2.1 6h.7v2.7zm-2.4-2.8l-1.3-4.1-1.3 4.1h2.6zm10.1 1.3h-1.8v-5.9h-2.6v5.9H112v-7.2h6.1v7.2zm7.8-5c0 1.2-.5 1.9-1.5 2.3-.3.1-.7.2-1.1.2h-1.2v2.5h-1.8v-7.2h2.6c.9 0 1.7.2 2.2.6.5.4.8.9.8 1.6zm-1.7.1c0-.7-.5-1.1-1.4-1.1h-.7v2.2h.8c.4 0 .7-.1 1-.3.2-.2.3-.4.3-.8zm9.9 4.9h-1.7v-4.6l-3.3 4.6h-1.5v-7.2h1.7V53l3.3-4.5h1.5v7.2zm7.6 0H140V53l-1.9 2.7h-2l2.1-2.7c-.7-.1-1.2-.4-1.5-.8-.3-.4-.5-.8-.5-1.4 0-.7.3-1.3.8-1.7.6-.4 1.3-.7 2.2-.7h2.6v7.3zm-1.7-3.7v-2.2h-.8c-.5 0-.8.1-1.1.3-.3.2-.4.5-.4.9 0 .7.5 1.1 1.5 1.1h.8zm8.3-2.2h-1.6v5.9H145v-5.9h-1.6v-1.3h5v1.3zm8.1 5.9h-1.7v-4.6l-3.3 4.6H150v-7.2h1.7V53l3.3-4.5h1.5v7.2zm6.5 0h-4.3v-7.2h4.3v1.3h-2.5v1.6h2.5v1.3h-2.5v1.8h2.5v1.2zM23.6 42.6h-7.7v-1.1h7.7v1.1zm10.1 0H26v-1.1h7.7v1.1zm10.1 0H36v-1.1h7.7v1.1zm10 0h-7.7v-1.1h7.7v1.1zm10.1 0h-7.7v-1.1h7.7v1.1zm10.1 0h-7.7v-1.1H74v1.1zm10 0h-7.7v-1.1H84v1.1zm10.1 0h-7.7v-1.1h7.7v1.1zm10.1 0h-7.7v-1.1h7.7v1.1zm10 0h-7.7v-1.1h7.7v1.1zm10.1 0h-7.7v-1.1h7.7v1.1zm10 0h-7.7v-1.1h7.7v1.1zm10.1 0h-7.7v-1.1h7.7v1.1zm10.1 0h-7.7v-1.1h7.7v1.1zm10 0h-7.7v-1.1h7.7v1.1z" id="Слой_1"/></svg>