<svg xmlns="http://www.w3.org/2000/svg" viewBox="0 0 100 100"><path d="M46.42 41.31h-14a1 1 0 0 1 0-2h14a1 1 0 0 1 0 2zm1-14a1 1 0 0 0-1-1h-14a1 1 0 0 0 0 2h14a1 1 0 0 0 1-1.01zm0 6.5a1 1 0 0 0-1-1h-14a1 1 0 0 0 0 2h14a1 1 0 0 0 1-1.01zm0 3.26a1 1 0 0 0-1-1h-14a1 1 0 0 0 0 2h14a1 1 0 0 0 1-1.01zm0-6.63a1 1 0 0 0-1-1h-14a1 1 0 0 0 0 2h14a1 1 0 0 0 1-1.01zm-19.34 9.87a1 1 0 0 0-1-1h-14a1 1 0 1 0 0 2h14a1 1 0 0 0 1-1zm0-13a1 1 0 0 0-1-1h-14a1 1 0 0 0 0 2h14a1 1 0 0 0 1-1.01zm0 6.5a1 1 0 0 0-1-1h-14a1 1 0 1 0 0 2h14a1 1 0 0 0 1-1.01zm0 3.26a1 1 0 0 0-1-1h-14a1 1 0 1 0 0 2h14a1 1 0 0 0 1-1.01zm0-6.63a1 1 0 0 0-1-1h-14a1 1 0 1 0 0 2h14a1 1 0 0 0 1-1.01zm19.34 33.65a1 1 0 0 0-1-1h-14a1 1 0 0 0 0 2h14a1 1 0 0 0 1-1zm0-13a1 1 0 0 0-1-1h-14a1 1 0 0 0 0 2h14a1 1 0 0 0 1-1.02zm0 6.51a1 1 0 0 0-1-1h-14a1 1 0 0 0 0 2h14a1 1 0 0 0 1-1.02zm0 3.26a1 1 0 0 0-1-1h-14a1 1 0 0 0 0 2h14a1 1 0 0 0 1-1.02zm0-6.63a1 1 0 0 0-1-1h-14a1 1 0 0 0 0 2h14a1 1 0 0 0 1-1.02zm-19.34 9.86a1 1 0 0 0-1-1h-14a1 1 0 1 0 0 2h14a1 1 0 0 0 1-1zm0-13a1 1 0 0 0-1-1h-14a1 1 0 0 0 0 2h14a1 1 0 0 0 1-1.02zm0 6.51a1 1 0 0 0-1-1h-14a1 1 0 1 0 0 2h14a1 1 0 0 0 1-1.02zm0 3.26a1 1 0 0 0-1-1h-14a1 1 0 1 0 0 2h14a1 1 0 0 0 1-1.02zm0-6.63a1 1 0 0 0-1-1h-14a1 1 0 0 0 0 2h14a1 1 0 0 0 1-1.02zm19.34 33.64a1 1 0 0 0-1-1h-14a1 1 0 0 0 0 2h14a1 1 0 0 0 1-1zm0-13a1 1 0 0 0-1-1h-14a1 1 0 0 0 0 2h14a1 1 0 0 0 1-1.02zm0 6.51a1 1 0 0 0-1-1h-14a1 1 0 0 0 0 2h14a1 1 0 0 0 1-1.02zm0 3.25a1 1 0 0 0-1-1h-14a1 1 0 0 0 0 2h14a1 1 0 0 0 1-1.02zm0-6.62a1 1 0 0 0-1-1h-14a1 1 0 0 0 0 2h14a1 1 0 0 0 1-1.01zm-19.34 9.86a1 1 0 0 0-1-1h-14a1 1 0 1 0 0 2h14a1 1 0 0 0 1-1zm0-13a1 1 0 0 0-1-1h-14a1 1 0 1 0 0 2h14a1 1 0 0 0 1-1.02zm0 6.51a1 1 0 0 0-1-1h-14a1 1 0 1 0 0 2h14a1 1 0 0 0 1-1.02zm0 3.25a1 1 0 0 0-1-1h-14a1 1 0 1 0 0 2h14a1 1 0 0 0 1-1.02zm0-6.62a1 1 0 0 0-1-1h-14a1 1 0 1 0 0 2h14a1 1 0 0 0 1-1.01zm40.5-13.9a1 1 0 0 0-1-1h-14a1 1 0 0 0 0 2h14a1 1 0 0 0 1-1.02zm0-13a1 1 0 0 0-1-1h-14a1 1 0 0 0 0 2h14a1 1 0 0 0 1-1.04zm0 6.51a1 1 0 0 0-1-1h-14a1 1 0 0 0 0 2h14a1 1 0 0 0 1-1.04zm0 3.26a1 1 0 0 0-1-1h-14a1 1 0 0 0 0 2h14a1 1 0 0 0 1-1.04zm0-6.63a1 1 0 0 0-1-1h-14a1 1 0 0 0 0 2h14a1 1 0 0 0 1-1.04zm0-13.9a1 1 0 0 0-1-1h-14a1 1 0 0 0 0 2h14a1 1 0 0 0 1-1.04zm0-13a1 1 0 0 0-1-1h-14a1 1 0 0 0 0 2h14a1 1 0 0 0 1-1.05zm0 6.5a1 1 0 0 0-1-1h-14a1 1 0 0 0 0 2h14a1 1 0 0 0 1-1.05zm0 3.26a1 1 0 0 0-1-1h-14a1 1 0 0 0 0 2h14a1 1 0 0 0 1-1.05zm0-6.63a1 1 0 0 0-1-1h-14a1 1 0 0 0 0 2h14a1 1 0 0 0 1-1.05zm19.34 9.88a1 1 0 0 0-1-1h-14a1 1 0 0 0 0 2h14a1 1 0 0 0 1-1.05zm0-13a1 1 0 0 0-1-1h-14a1 1 0 0 0 0 2h14a1 1 0 0 0 1-1.06zm0 6.5a1 1 0 0 0-1-1h-14a1 1 0 0 0 0 2h14a1 1 0 0 0 1-1.06zm0 3.26a1 1 0 0 0-1-1h-14a1 1 0 0 0 0 2h14a1 1 0 0 0 1-1.06zm0-6.63a1 1 0 0 0-1-1h-14a1 1 0 0 0 0 2h14a1 1 0 0 0 1-1.06zm0 33.66a1 1 0 0 0-1-1h-14a1 1 0 1 0 0 2h14a1 1 0 0 0 1-1.06zm0-13a1 1 0 0 0-1-1h-14a1 1 0 0 0 0 2h14a1 1 0 0 0 1-1.08zm0 6.51a1 1 0 0 0-1-1h-14a1 1 0 0 0 0 2h14a1 1 0 0 0 1-1.08zm0 3.26a1 1 0 0 0-1-1h-14a1 1 0 1 0 0 2h14a1 1 0 0 0 1-1.08zm0-6.63a1 1 0 0 0-1-1h-14a1 1 0 0 0 0 2h14a1 1 0 0 0 1-1.08zM68.58 87.87a1 1 0 0 0-1-1h-14a1 1 0 1 0 0 2h14a1 1 0 0 0 1-1zm0-13a1 1 0 0 0-1-1h-14a1 1 0 0 0 0 2h14a1 1 0 0 0 1-1.02zm0 6.51a1 1 0 0 0-1-1h-14a1 1 0 0 0 0 2h14a1 1 0 0 0 1-1.02zm0 3.25a1 1 0 0 0-1-1h-14a1 1 0 0 0 0 2h14a1 1 0 0 0 1-1.02zm0-6.62a1 1 0 0 0-1-1h-14a1 1 0 0 0 0 2h14a1 1 0 0 0 1-1.01zm19.34 9.88a1 1 0 0 0-1-1h-14a1 1 0 0 0 0 2h14a1 1 0 0 0 1-1.02zm0-13a1 1 0 0 0-1-1h-14a1 1 0 1 0 0 2h14a1 1 0 0 0 1-1.04zm0 6.51a1 1 0 0 0-1-1h-14a1 1 0 0 0 0 2h14a1 1 0 0 0 1-1.04zm0 3.25a1 1 0 0 0-1-1h-14a1 1 0 0 0 0 2h14a1 1 0 0 0 1-1.04zm0-6.62a1 1 0 0 0-1-1h-14a1 1 0 0 0 0 2h14a1 1 0 0 0 1-1.03zm11.27-54.28a3 3 0 0 1-2.8 1.92 3.08 3.08 0 0 1-.89-.15v70.23h-91V25.52a3 3 0 0 1-2-5.65L48.92 2a3 3 0 0 1 2.16 0l46.39 17.87a3 3 0 0 1 1.72 3.88zm-89.69 67H49V8.39L19.09 19.91H48v4H9.5v19.78H48v4H9.5v19.78H48v4H9.5zm81 0V71.47H52v-4h38.5V47.69H52v-4h38.5V23.91H52v-4h28.91L51 8.39v82.36z" fill="#618bbe" data-name="2"/></svg>